<svg xmlns="http://www.w3.org/2000/svg" xmlns:xlink="http://www.w3.org/1999/xlink" width="16" zoomAndPan="magnify" viewBox="0 0 810 810" height="16" preserveAspectRatio="xMidYMid meet" version="1.0"><defs><clipPath id="1db6afce2e"><path d="M 285.546875 176 L 523.941406 176 L 523.941406 522.535156 L 285.546875 522.535156 Z M 285.546875 176 " clip-rule="nonzero"/></clipPath><clipPath id="17dff5ae13"><path d="M 348.53125 493.757812 C 342.601562 479.953125 340.710938 477.296875 339.28125 474.175781 C 337.796875 470.855469 337.082031 467.53125 335.34375 463.59375 C 333.042969 458.378906 328.695312 449.636719 326.140625 445.855469 C 324.8125 443.859375 323.738281 443.347656 322.613281 441.664062 C 321.285156 439.667969 320.210938 437.214844 318.933594 434.453125 C 317.296875 430.976562 316.070312 427.347656 313.871094 422.441406 C 310.191406 414.414062 302.011719 399.792969 298.585938 391.101562 C 296.234375 385.273438 295.414062 381.589844 293.828125 375.96875 C 291.835938 368.964844 289.023438 359.453125 287.847656 352.246094 C 286.929688 346.367188 286.824219 342.53125 286.570312 335.988281 C 286.210938 325.917969 285.242188 310.222656 286.621094 297.746094 C 288 285.527344 292.144531 270.855469 294.75 262.011719 C 296.335938 256.589844 297.410156 253.675781 299.402344 249.230469 C 301.753906 244.066406 304.871094 238.648438 308.347656 232.972656 C 312.492188 226.324219 319.085938 216.917969 322.867188 212.011719 C 325.117188 209.148438 326.191406 207.820312 328.492188 205.570312 C 331.40625 202.707031 335.648438 199.078125 339.226562 196.519531 C 342.347656 194.21875 345.566406 192.277344 348.585938 190.640625 C 351.292969 189.160156 352.929688 188.339844 356.355469 186.960938 C 362.59375 184.507812 375.015625 180.007812 383.246094 178.320312 C 389.996094 176.992188 395.566406 177.042969 402.007812 176.683594 C 408.808594 176.378906 417.859375 176.171875 423.125 176.429688 C 426.242188 176.582031 427.316406 176.683594 430.585938 177.246094 C 437.03125 178.371094 452.265625 182.15625 458.707031 183.996094 C 462.183594 185.015625 464.074219 185.476562 466.628906 186.703125 C 469.390625 187.984375 472.152344 189.875 474.605469 191.664062 C 477.007812 193.402344 479.003906 194.882812 481.355469 197.234375 C 484.574219 200.355469 488.765625 205.519531 491.628906 209.199219 C 493.929688 212.164062 495.414062 214.3125 497.457031 217.480469 C 499.964844 221.316406 503.335938 226.941406 505.332031 230.722656 C 506.761719 233.484375 507.375 234.507812 508.707031 238.035156 C 511.875 246.367188 519.75 272.695312 521.640625 281.183594 C 522.355469 284.660156 522.40625 285.273438 522.664062 288.59375 C 523.226562 295.394531 523.277344 310.375 523.429688 319.832031 C 523.53125 327.65625 523.632812 335.9375 523.429688 341.253906 C 523.328125 344.476562 523.480469 345.90625 522.867188 348.921875 C 521.945312 353.523438 520.054688 359.097656 517.347656 365.742188 C 513.050781 376.222656 503.898438 395.242188 497.917969 405.109375 C 494.03125 411.652344 488.765625 417.121094 486.824219 420.445312 C 485.957031 421.929688 486.058594 422.386719 485.289062 423.769531 C 483.757812 426.476562 479.054688 432 477.417969 435.066406 C 476.394531 436.957031 476.292969 438.390625 475.527344 439.976562 C 474.707031 441.609375 473.378906 443.144531 472.714844 444.679688 C 472.101562 446.007812 471.691406 447.285156 471.4375 448.5625 C 471.179688 449.792969 471.386719 450.710938 471.179688 452.039062 C 470.875 454.085938 470.105469 457.304688 469.441406 459.554688 C 468.878906 461.5 467.910156 462.726562 467.5 464.769531 C 466.988281 467.378906 467.804688 471.824219 467.191406 474.074219 C 466.785156 475.457031 465.8125 476.121094 465.402344 477.246094 C 465.046875 478.421875 465.046875 479.289062 464.890625 481.027344 C 464.585938 485.117188 464.738281 496.210938 464.328125 501.425781 C 464.125 504.699219 463.5625 506.539062 463.410156 509.351562 C 463.207031 512.621094 463.921875 517.785156 463.359375 519.882812 C 463.101562 520.90625 462.796875 521.621094 462.234375 522.03125 C 461.824219 522.335938 461.210938 522.542969 460.699219 522.4375 C 460.035156 522.335938 459.011719 521.773438 458.65625 521.210938 C 458.296875 520.75 458.246094 520.136719 458.296875 519.628906 C 458.347656 519.117188 458.605469 518.503906 458.960938 518.144531 C 459.320312 517.785156 459.882812 517.480469 460.394531 517.378906 C 460.90625 517.273438 461.570312 517.328125 462.027344 517.632812 C 462.589844 517.992188 463.308594 518.910156 463.359375 519.628906 C 463.460938 520.34375 462.949219 521.367188 462.488281 521.824219 C 462.082031 522.234375 461.46875 522.4375 460.957031 522.4375 C 460.445312 522.488281 459.832031 522.335938 459.371094 522.03125 C 458.859375 521.621094 458.5 520.957031 458.246094 519.882812 C 457.683594 517.53125 458.042969 510.832031 458.296875 507.460938 C 458.5 505.109375 459.011719 504.085938 459.21875 501.425781 C 459.730469 496.3125 459.574219 482.714844 459.933594 478.878906 C 460.035156 477.550781 460.085938 477.195312 460.34375 476.222656 C 460.699219 475.046875 461.773438 473.871094 462.132812 472.386719 C 462.589844 470.496094 461.925781 468.398438 462.285156 465.84375 C 462.847656 462.011719 465.300781 455.722656 466.066406 451.835938 C 466.628906 449.125 466.273438 447.4375 467.089844 444.78125 C 468.214844 441.101562 470.925781 436.089844 473.226562 432.152344 C 475.476562 428.371094 479.054688 424.332031 480.691406 421.570312 C 481.660156 419.882812 481.660156 419.117188 482.734375 417.378906 C 484.832031 413.953125 489.535156 409.148438 493.316406 402.960938 C 499.144531 393.351562 508.347656 374.074219 512.589844 363.902344 C 515.148438 357.714844 516.9375 352.757812 517.753906 348.511719 C 518.367188 345.703125 518.214844 344.628906 518.316406 341.253906 C 518.574219 333.890625 518.367188 315.230469 518.214844 305.671875 C 518.0625 299.179688 517.960938 293.554688 517.601562 289.3125 C 517.398438 286.550781 517.398438 285.734375 516.679688 282.5625 C 514.941406 274.484375 507.070312 248.207031 504.054688 240.179688 C 502.828125 236.910156 502.316406 235.988281 500.933594 233.382812 C 499.042969 229.699219 496.128906 224.742188 493.265625 220.394531 C 490.148438 215.742188 485.699219 210.015625 482.835938 206.488281 C 480.996094 204.242188 479.871094 202.859375 478.132812 201.171875 C 476.242188 199.332031 474.042969 197.59375 471.894531 196.007812 C 469.699219 194.375 467.398438 192.6875 464.996094 191.511719 C 462.644531 190.386719 460.851562 189.976562 457.582031 189.003906 C 451.34375 187.164062 436.160156 183.433594 430.027344 182.308594 C 427.007812 181.796875 425.578125 181.644531 423.125 181.542969 C 420.464844 181.386719 418.214844 181.542969 414.738281 181.644531 C 409.21875 181.746094 398.636719 181.847656 393.113281 182.257812 C 389.636719 182.511719 388.207031 182.511719 384.625 183.28125 C 378.289062 184.660156 364.484375 189.261719 358.554688 191.613281 C 355.332031 192.839844 353.800781 193.605469 351.292969 194.988281 C 348.480469 196.519531 345.414062 198.308594 342.449219 200.457031 C 339.125 202.859375 335.085938 206.234375 332.328125 208.945312 C 330.179688 210.988281 329.15625 212.265625 327.0625 214.925781 C 323.378906 219.679688 316.785156 229.085938 312.746094 235.578125 C 309.371094 241 306.457031 246.058594 304.207031 250.96875 C 302.265625 255.261719 301.242188 258.074219 299.710938 263.289062 C 297.152344 271.828125 293.0625 286.039062 291.734375 297.953125 C 290.351562 310.222656 291.375 326.019531 291.683594 335.785156 C 291.9375 341.917969 291.886719 345.292969 292.808594 350.8125 C 293.933594 357.871094 296.796875 367.683594 298.738281 374.585938 C 300.21875 379.902344 300.886719 383.125 303.082031 388.699219 C 306.457031 397.285156 314.382812 411.5 318.625 420.597656 C 321.742188 427.347656 324.605469 435.375 326.5 438.339844 C 327.214844 439.464844 327.570312 439.464844 328.339844 440.488281 C 329.976562 442.683594 333.246094 448.105469 335.292969 451.835938 C 337.132812 455.210938 338.71875 458.480469 340.148438 461.855469 C 341.582031 465.128906 342.347656 468.605469 343.828125 471.773438 C 345.261719 474.996094 347.304688 477.859375 348.839844 481.128906 C 350.425781 484.503906 352.777344 489.71875 353.238281 491.816406 C 353.441406 492.632812 353.492188 493.09375 353.289062 493.605469 C 353.082031 494.167969 352.675781 494.730469 352.113281 494.984375 C 351.5 495.292969 350.375 495.34375 349.761719 495.085938 C 349.199219 494.832031 348.53125 493.757812 348.53125 493.757812 " clip-rule="nonzero"/></clipPath><clipPath id="44d11bb41f"><path d="M 346.175781 490.726562 L 469.691406 490.726562 L 469.691406 528.242188 L 346.175781 528.242188 Z M 346.175781 490.726562 " clip-rule="nonzero"/></clipPath><clipPath id="17633bd720"><path d="M 351.957031 493.417969 C 352.417969 514.890625 352.777344 515.148438 353.746094 515.8125 C 355.945312 517.242188 362.695312 518.828125 366.171875 519.648438 C 368.675781 520.261719 369.902344 520.515625 372.664062 520.824219 C 377.265625 521.4375 383.09375 522 391.324219 522.304688 C 407.429688 522.917969 452.726562 523.277344 462.589844 522.355469 C 465.25 522.101562 466.425781 521.230469 467.550781 521.386719 C 468.214844 521.488281 468.625 521.792969 468.980469 522.203125 C 469.339844 522.5625 469.648438 523.125 469.648438 523.683594 C 469.699219 524.351562 469.289062 525.421875 468.726562 525.882812 C 468.214844 526.34375 467.039062 526.496094 466.425781 526.394531 C 465.863281 526.242188 465.351562 525.832031 465.046875 525.421875 C 464.738281 525.015625 464.535156 524.453125 464.585938 523.890625 C 464.636719 523.226562 465.199219 522.203125 465.710938 521.792969 C 466.171875 521.4375 466.785156 521.332031 467.296875 521.386719 C 467.804688 521.386719 468.417969 521.640625 468.777344 522 C 469.1875 522.355469 469.542969 522.917969 469.648438 523.378906 C 469.75 523.890625 469.648438 524.554688 469.441406 525.015625 C 469.1875 525.476562 468.878906 525.882812 468.265625 526.191406 C 467.191406 526.804688 465.609375 527.109375 462.695312 527.417969 C 452.265625 528.59375 407.582031 528.082031 391.222656 527.417969 C 382.582031 527.058594 376.445312 526.546875 371.539062 525.832031 C 368.472656 525.421875 367.089844 525.117188 364.175781 524.351562 C 359.933594 523.226562 350.832031 521.027344 348.480469 519.136719 C 347.511719 518.367188 347.355469 518.0625 347 516.785156 C 345.925781 513.050781 345.976562 495.925781 346.949219 492.804688 C 347.203125 491.9375 347.511719 491.628906 347.96875 491.324219 C 348.429688 490.964844 349.199219 490.8125 349.761719 490.863281 C 350.269531 490.914062 350.988281 491.273438 351.34375 491.734375 C 351.703125 492.140625 351.957031 493.417969 351.957031 493.417969 " clip-rule="nonzero"/></clipPath><clipPath id="24745dd978"><path d="M 322.046875 273.019531 L 467.582031 273.019531 L 467.582031 529 L 322.046875 529 Z M 322.046875 273.019531 " clip-rule="nonzero"/></clipPath><clipPath id="b775d77570"><path d="M 378.339844 521.027344 C 377.417969 489.789062 377.058594 480.179688 376.089844 472 C 375.269531 464.738281 374.144531 456.507812 372.765625 451.546875 C 371.949219 448.582031 371.128906 447.050781 370.003906 444.597656 C 368.726562 441.734375 367.5 438.769531 365.558594 435.546875 C 363 431.304688 358.707031 425.527344 355.691406 421.742188 C 353.441406 418.929688 352.214844 417.449219 349.402344 414.738281 C 344.699219 410.1875 333.195312 401.804688 329.308594 398.074219 C 327.570312 396.386719 326.753906 395.617188 325.730469 394.136719 C 324.710938 392.550781 323.890625 390.964844 323.328125 388.820312 C 322.5625 385.699219 322.304688 381.097656 322.5625 377.058594 C 322.867188 372.765625 323.992188 368.164062 325.167969 363.769531 C 326.449219 359.21875 327.980469 354.207031 329.976562 350.21875 C 331.765625 346.640625 333.808594 343.421875 336.160156 340.710938 C 338.410156 338.207031 340.964844 336.058594 343.625 334.371094 C 346.179688 332.785156 349.25 331.660156 351.652344 330.742188 C 353.492188 330.078125 355.027344 329.515625 356.816406 329.257812 C 358.554688 328.953125 360.445312 328.746094 362.183594 329.15625 C 363.871094 329.515625 365.660156 330.28125 367.039062 331.507812 C 368.625 333.042969 369.699219 335.75 370.824219 337.949219 C 372 340.199219 373.023438 342.601562 373.839844 344.953125 C 374.65625 347.253906 375.21875 349.453125 375.730469 351.804688 C 376.292969 354.257812 376.652344 356.867188 376.90625 359.371094 C 377.113281 361.722656 377.519531 364.6875 377.164062 366.425781 C 376.957031 367.550781 376.652344 368.371094 375.9375 368.984375 C 375.167969 369.75 373.789062 370.210938 372.511719 370.363281 C 370.875 370.617188 368.371094 370.3125 366.886719 369.851562 C 365.863281 369.546875 365.199219 369.238281 364.433594 368.523438 C 363.410156 367.5 362.4375 366.222656 361.773438 363.71875 C 360.085938 357.273438 360.136719 333.859375 361.417969 326.089844 C 361.980469 322.511719 363 321.179688 364.074219 318.421875 C 365.351562 315.097656 366.835938 311.46875 368.828125 307.53125 C 371.285156 302.570312 374.964844 295.3125 378.183594 291.222656 C 380.535156 288.308594 382.53125 286.671875 385.34375 284.472656 C 388.664062 281.917969 394.136719 278.75 397.101562 277.164062 C 398.789062 276.242188 399.8125 275.835938 401.242188 275.324219 C 402.621094 274.863281 403.851562 274.503906 405.484375 274.199219 C 407.785156 273.789062 411.109375 273.277344 413.664062 273.535156 C 415.863281 273.738281 417.753906 274.300781 419.851562 275.21875 C 422.203125 276.292969 424.964844 278.082031 426.957031 279.871094 C 428.847656 281.457031 430.332031 283.347656 431.609375 285.191406 C 432.886719 286.980469 433.859375 288.667969 434.78125 290.761719 C 435.90625 293.214844 436.925781 296.488281 437.59375 299.25 C 438.207031 301.753906 438.511719 304.105469 438.820312 306.664062 C 439.074219 309.320312 439.328125 312.132812 439.277344 314.945312 C 439.277344 317.808594 439.125 320.210938 438.664062 323.6875 C 438 328.953125 437.082031 336.261719 435.035156 343.265625 C 432.429688 352.0625 427.109375 368.878906 423.175781 372 C 421.640625 373.226562 419.902344 372.917969 418.574219 372.714844 C 417.5 372.5625 416.683594 372.101562 415.8125 371.285156 C 414.535156 370.054688 413.15625 367.398438 412.4375 365.199219 C 411.671875 362.949219 411.417969 360.035156 411.46875 357.890625 C 411.519531 356.203125 411.824219 354.769531 412.234375 353.339844 C 412.644531 352.007812 413.101562 350.78125 413.871094 349.503906 C 414.738281 348.023438 415.863281 346.335938 417.347656 345.003906 C 419.085938 343.472656 421.335938 342.140625 423.789062 341.070312 C 426.652344 339.84375 430.382812 338.972656 433.554688 338.308594 C 436.414062 337.695312 439.226562 337.386719 441.9375 337.183594 C 444.441406 336.980469 447 336.824219 449.25 336.980469 C 451.191406 337.082031 452.929688 337.285156 454.667969 337.746094 C 456.355469 338.207031 458.144531 338.820312 459.574219 339.636719 C 460.90625 340.402344 462.03125 341.476562 463 342.5 C 463.820312 343.421875 464.484375 344.339844 465.046875 345.363281 C 465.609375 346.386719 466.015625 347.152344 466.375 348.636719 C 466.9375 351.292969 466.988281 355.84375 467.140625 360.242188 C 467.347656 365.964844 467.5 375.628906 467.242188 380.027344 C 467.140625 382.273438 467.039062 383.347656 466.679688 385.085938 C 466.273438 386.980469 465.761719 388.769531 464.945312 390.914062 C 463.921875 393.625 462.589844 396.589844 460.648438 400.015625 C 457.835938 404.871094 452.726562 411.109375 449.144531 417.089844 C 445.464844 423.226562 441.785156 431.96875 438.921875 436.3125 C 437.335938 438.769531 436.007812 439.789062 434.675781 441.683594 C 433.398438 443.625 432.070312 445.566406 431.097656 447.816406 C 430.027344 450.320312 429.207031 453.746094 428.796875 456.097656 C 428.492188 457.785156 428.492188 458.296875 428.390625 460.546875 C 428.03125 467.242188 427.980469 488.972656 428.03125 500.882812 C 428.082031 510.34375 429.410156 522.613281 428.492188 526.34375 C 428.234375 527.46875 427.980469 528.082031 427.367188 528.441406 C 426.804688 528.847656 425.679688 529.003906 425.015625 528.695312 C 424.351562 528.441406 423.582031 527.570312 423.429688 526.90625 C 423.328125 526.191406 423.636719 525.117188 424.09375 524.605469 C 424.605469 524.09375 425.679688 523.683594 426.34375 523.839844 C 427.058594 523.941406 427.929688 524.707031 428.289062 525.269531 C 428.542969 525.730469 428.542969 526.394531 428.441406 526.90625 C 428.339844 527.417969 428.03125 527.980469 427.621094 528.285156 C 427.058594 528.695312 425.933594 528.953125 425.269531 528.796875 C 424.707031 528.695312 424.25 528.285156 423.941406 527.878906 C 423.582031 527.46875 423.53125 527.160156 423.378906 526.34375 C 422.816406 523.019531 422.96875 509.984375 422.917969 500.882812 C 422.816406 490.453125 422.765625 475.78125 423.074219 467.296875 C 423.226562 462.082031 423.175781 458.605469 423.890625 454.71875 C 424.503906 451.292969 425.527344 447.917969 426.753906 445.105469 C 427.828125 442.703125 429.105469 440.964844 430.535156 438.714844 C 432.273438 436.058594 434.882812 433.246094 436.570312 430.332031 C 438.257812 427.417969 439.277344 424.09375 440.710938 421.28125 C 442.039062 418.726562 443.214844 416.886719 444.953125 414.125 C 447.40625 410.292969 451.855469 404.871094 454.464844 400.476562 C 456.761719 396.640625 458.859375 392.398438 460.085938 389.382812 C 460.851562 387.488281 461.261719 386.109375 461.621094 384.472656 C 461.925781 382.992188 462.03125 381.96875 462.132812 380.027344 C 462.335938 376.550781 462.183594 370.210938 462.082031 365.300781 C 461.976562 360.34375 462.386719 353.746094 461.570312 350.375 C 461.109375 348.53125 460.292969 347.355469 459.574219 346.285156 C 458.960938 345.464844 458.398438 344.902344 457.582031 344.339844 C 456.609375 343.675781 455.179688 343.164062 453.847656 342.808594 C 452.46875 342.398438 451.039062 342.195312 449.402344 342.089844 C 447.355469 341.9375 444.953125 342.039062 442.601562 342.246094 C 440.097656 342.398438 437.488281 342.703125 434.882812 343.214844 C 432.070312 343.777344 428.746094 344.546875 426.34375 345.515625 C 424.351562 346.285156 422.613281 347.152344 421.230469 348.277344 C 420.054688 349.25 419.1875 350.476562 418.523438 351.601562 C 417.960938 352.519531 417.601562 353.390625 417.246094 354.359375 C 416.9375 355.332031 416.578125 356.203125 416.578125 357.53125 C 416.527344 359.730469 417.089844 364.433594 418.113281 366.273438 C 418.675781 367.398438 420.105469 368.625 420.414062 368.421875 C 420.773438 368.265625 420.160156 366.734375 420.3125 365.710938 C 420.464844 364.382812 421.027344 362.644531 421.640625 361.210938 C 422.355469 359.679688 423.328125 358.707031 424.300781 356.765625 C 425.988281 353.390625 428.492188 347.511719 429.972656 342.296875 C 431.660156 336.46875 432.886719 328.289062 433.554688 323.277344 C 434.011719 320.058594 434.21875 318.265625 434.167969 315.199219 C 434.167969 311.109375 433.554688 304.820312 432.734375 300.832031 C 432.121094 297.867188 431.253906 295.414062 430.332031 293.214844 C 429.515625 291.425781 428.746094 289.996094 427.726562 288.511719 C 426.652344 286.929688 425.578125 285.394531 424.09375 284.066406 C 422.511719 282.582031 420.210938 281.046875 418.316406 280.078125 C 416.785156 279.363281 415.507812 278.851562 413.820312 278.59375 C 411.722656 278.390625 408.707031 278.851562 406.765625 279.15625 C 405.382812 279.363281 404.410156 279.617188 403.289062 280.027344 C 402.058594 280.433594 401.140625 280.792969 399.65625 281.558594 C 397 282.992188 391.835938 285.957031 388.820312 288.257812 C 386.3125 290.097656 384.574219 291.375 382.480469 293.984375 C 379.464844 297.765625 376.140625 304.207031 373.480469 309.578125 C 370.824219 314.945312 367.808594 319.390625 366.527344 326.242188 C 364.585938 336.109375 363.871094 359.167969 367.089844 364.125 C 368.316406 366.019531 371.179688 367.039062 372.050781 366.476562 C 373.175781 365.710938 371.949219 360.496094 371.539062 357.378906 C 371.027344 354.003906 370.261719 350.476562 369.136719 347 C 367.910156 343.214844 365.914062 337.59375 364.28125 335.648438 C 363.460938 334.78125 362.847656 334.472656 361.925781 334.167969 C 360.855469 333.859375 359.730469 333.859375 358.195312 334.167969 C 355.382812 334.628906 349.964844 336.570312 346.847656 338.359375 C 344.238281 339.84375 342.347656 341.425781 340.402344 343.574219 C 338.257812 345.875 336.417969 348.738281 334.78125 351.957031 C 332.890625 355.691406 331.40625 360.546875 330.179688 364.789062 C 329.054688 368.828125 328.03125 373.023438 327.675781 376.855469 C 327.417969 380.332031 327.519531 384.371094 328.082031 386.875 C 328.390625 388.511719 328.695312 389.433594 329.566406 390.8125 C 330.945312 392.859375 333.554688 394.902344 336.417969 397.460938 C 340.710938 401.292969 348.992188 407.273438 353.183594 411.3125 C 356.046875 414.023438 357.429688 415.761719 359.78125 418.675781 C 362.949219 422.664062 367.5 428.847656 370.109375 433.246094 C 372.152344 436.671875 373.429688 439.6875 374.761719 442.753906 C 375.988281 445.464844 376.90625 447.304688 377.828125 450.628906 C 379.257812 455.894531 380.332031 463.359375 381.203125 471.640625 C 382.480469 483.347656 383.246094 506.25 383.449219 514.328125 C 383.554688 517.5 383.757812 519.542969 383.449219 521.027344 C 383.347656 521.792969 383.144531 522.304688 382.835938 522.714844 C 382.582031 523.019531 382.222656 523.277344 381.816406 523.378906 C 381.304688 523.582031 380.484375 523.582031 380.027344 523.378906 C 379.617188 523.277344 379.257812 523.019531 379.003906 522.714844 C 378.695312 522.304688 378.339844 521.027344 378.339844 521.027344 " clip-rule="nonzero"/></clipPath><clipPath id="21f6f3f9a7"><path d="M 340.121094 512.316406 L 468.941406 512.316406 L 468.941406 548.453125 L 340.121094 548.453125 Z M 340.121094 512.316406 " clip-rule="nonzero"/></clipPath><clipPath id="cbcef009f9"><path d="M 351.90625 516.117188 C 345.109375 529.460938 344.800781 532.121094 345.722656 533.601562 C 346.640625 534.984375 348.839844 535.289062 350.9375 536.007812 C 353.902344 537.027344 358.09375 538 362.082031 538.613281 C 366.476562 539.277344 371.742188 538.972656 376.292969 539.636719 C 380.589844 540.25 384.167969 541.835938 388.664062 542.449219 C 393.984375 543.113281 398.839844 542.855469 406.097656 542.960938 C 418.316406 543.164062 447.867188 544.542969 455.128906 542.960938 C 457.324219 542.5 457.886719 541.988281 459.269531 541.066406 C 460.800781 540.046875 463 538.664062 463.765625 536.773438 C 464.636719 534.675781 463.410156 530.433594 463.664062 528.796875 C 463.765625 528.082031 463.871094 527.671875 464.175781 527.265625 C 464.484375 526.855469 465.046875 526.496094 465.558594 526.34375 C 466.015625 526.191406 466.679688 526.242188 467.140625 526.445312 C 467.652344 526.652344 468.164062 527.007812 468.417969 527.519531 C 468.675781 528.082031 468.828125 529.257812 468.523438 529.871094 C 468.214844 530.535156 467.296875 531.199219 466.628906 531.355469 C 465.914062 531.457031 464.839844 531.046875 464.328125 530.535156 C 463.871094 530.023438 463.613281 528.898438 463.714844 528.234375 C 463.765625 527.722656 464.175781 527.160156 464.585938 526.855469 C 464.945312 526.496094 465.558594 526.292969 466.066406 526.242188 C 466.578125 526.242188 467.242188 526.394531 467.652344 526.703125 C 468.0625 527.007812 468.417969 527.367188 468.625 527.980469 C 469.085938 529.257812 468.828125 532.273438 468.726562 534.113281 C 468.625 535.648438 468.523438 537.027344 468.113281 538.253906 C 467.753906 539.328125 467.347656 540.097656 466.476562 541.066406 C 465.097656 542.652344 461.519531 545.003906 459.933594 546.128906 C 459.011719 546.742188 458.605469 547.101562 457.734375 547.40625 C 456.660156 547.816406 455.945312 547.917969 454.003906 548.070312 C 446.894531 548.683594 416.9375 548.277344 404.515625 548.070312 C 397.050781 547.917969 391.785156 548.121094 386.570312 547.40625 C 382.53125 546.792969 379.871094 545.363281 375.9375 544.75 C 371.230469 543.929688 364.789062 544.136719 360.1875 543.367188 C 356.457031 542.753906 353.03125 541.835938 350.167969 540.863281 C 347.917969 540.097656 345.773438 539.074219 344.289062 538.308594 C 343.316406 537.847656 342.550781 537.695312 341.9375 537.027344 C 341.273438 536.210938 340.863281 535.035156 340.609375 533.601562 C 340.199219 531.199219 340.046875 526.140625 340.8125 523.839844 C 341.324219 522.355469 342.449219 521.4375 343.265625 520.566406 C 343.933594 519.902344 344.851562 519.648438 345.3125 518.929688 C 345.824219 518.164062 345.671875 517.039062 346.078125 516.066406 C 346.589844 514.941406 347.5625 513.308594 348.277344 512.746094 C 348.636719 512.4375 348.992188 512.335938 349.402344 512.335938 C 349.964844 512.335938 350.730469 512.488281 351.191406 512.796875 C 351.652344 513.152344 352.0625 513.765625 352.164062 514.328125 C 352.265625 514.890625 351.90625 516.117188 351.90625 516.117188 " clip-rule="nonzero"/></clipPath><clipPath id="fbb5b27530"><path d="M 340.402344 536.875 L 471.976562 536.875 L 471.976562 572.410156 L 340.402344 572.410156 Z M 340.402344 536.875 " clip-rule="nonzero"/></clipPath><clipPath id="8272ccf62a"><path d="M 347.96875 540.046875 C 345.566406 552.160156 345.515625 553.03125 345.722656 554.105469 C 345.925781 555.230469 346.128906 556.457031 346.847656 557.375 C 347.714844 558.449219 349.199219 559.011719 350.730469 559.882812 C 352.777344 561.007812 355.382812 562.4375 358.042969 563.359375 C 361.058594 564.378906 364.074219 565.046875 367.960938 565.554688 C 373.277344 566.222656 382.429688 565.8125 387.132812 566.222656 C 389.894531 566.425781 390.863281 566.886719 393.625 567.089844 C 398.6875 567.398438 409.269531 567.5 414.945312 567.089844 C 418.828125 566.835938 421.640625 566.324219 424.554688 565.761719 C 427.058594 565.25 429.566406 564.226562 431.457031 563.972656 C 432.734375 563.765625 433.347656 564.125 434.78125 563.871094 C 437.335938 563.359375 441.425781 560.699219 445.464844 559.933594 C 450.320312 559.011719 458.960938 560.136719 462.027344 559.675781 C 463.257812 559.523438 463.871094 559.472656 464.535156 558.960938 C 465.300781 558.5 465.863281 557.886719 466.273438 556.660156 C 467.191406 553.847656 465.964844 542.960938 466.527344 540.761719 C 466.679688 540.148438 466.785156 539.992188 467.089844 539.6875 C 467.449219 539.328125 468.113281 538.921875 468.675781 538.816406 C 469.238281 538.765625 470.003906 538.972656 470.464844 539.277344 C 470.925781 539.585938 471.4375 540.148438 471.488281 540.761719 C 471.488281 541.628906 470.515625 543.417969 469.492188 544.085938 C 468.367188 544.800781 466.476562 544.699219 464.996094 544.75 C 463.511719 544.800781 461.414062 544.851562 460.496094 544.339844 C 459.984375 544.03125 459.730469 543.46875 459.574219 543.011719 C 459.421875 542.5 459.472656 541.835938 459.625 541.375 C 459.832031 540.863281 460.238281 540.351562 460.699219 540.097656 C 461.109375 539.839844 461.773438 539.6875 462.285156 539.738281 C 462.796875 539.789062 463.359375 540.046875 463.765625 540.402344 C 464.125 540.710938 464.484375 541.273438 464.535156 541.835938 C 464.585938 542.5 464.277344 543.574219 463.820312 544.085938 C 463.460938 544.492188 462.847656 544.75 462.335938 544.800781 C 461.824219 544.851562 461.210938 544.800781 460.75 544.492188 C 460.1875 544.085938 459.574219 543.113281 459.472656 542.449219 C 459.421875 541.886719 459.625 541.324219 459.882812 540.863281 C 460.1875 540.453125 460.648438 540.046875 461.160156 539.839844 C 461.824219 539.585938 462.847656 539.484375 463.664062 539.6875 C 464.585938 539.890625 465.863281 541.578125 466.425781 541.375 C 466.835938 541.222656 466.785156 540.097656 467.089844 539.6875 C 467.347656 539.328125 467.703125 539.125 468.113281 538.972656 C 468.574219 538.816406 469.390625 538.816406 469.902344 538.972656 C 470.3125 539.125 470.667969 539.328125 470.925781 539.6875 C 471.230469 540.097656 471.386719 540.503906 471.539062 541.375 C 472 544.03125 472.152344 554.15625 471.078125 557.886719 C 470.464844 560.035156 469.441406 561.464844 468.265625 562.589844 C 467.242188 563.5625 466.476562 563.972656 464.738281 564.429688 C 461.109375 565.402344 451.445312 563.921875 446.28125 564.992188 C 442.296875 565.761719 439.125 568.316406 436.058594 568.980469 C 433.707031 569.492188 431.507812 568.929688 429.667969 569.339844 C 428.234375 569.59375 427.367188 570.3125 425.882812 570.667969 C 423.890625 571.179688 421.792969 571.589844 418.625 571.84375 C 412.796875 572.355469 402.007812 572.40625 393.523438 572.203125 C 384.832031 571.996094 372.917969 571.332031 367.089844 570.566406 C 364.175781 570.207031 363.101562 570.054688 360.648438 569.339844 C 356.96875 568.214844 350.9375 566.015625 347.5625 563.871094 C 344.953125 562.183594 342.5 560.085938 341.425781 558.296875 C 340.761719 557.070312 340.761719 556.097656 340.609375 554.769531 C 340.402344 553.03125 340.457031 550.984375 340.710938 548.683594 C 341.121094 545.71875 342.195312 540.097656 343.214844 538.359375 C 343.625 537.640625 343.984375 537.335938 344.496094 537.132812 C 345.054688 536.925781 345.773438 536.875 346.335938 537.078125 C 346.847656 537.234375 347.460938 537.746094 347.714844 538.203125 C 347.96875 538.714844 347.96875 540.046875 347.96875 540.046875 " clip-rule="nonzero"/></clipPath><clipPath id="6ad70897ac"><path d="M 369.738281 587.054688 L 386.828125 587.054688 L 386.828125 629.46875 L 369.738281 629.46875 Z M 369.738281 587.054688 " clip-rule="nonzero"/></clipPath><clipPath id="04a5c324e4"><path d="M 375.882812 589.636719 C 377.214844 626.191406 381.304688 625.066406 381.710938 624.296875 C 382.019531 623.734375 380.792969 623.121094 380.535156 621.945312 C 379.820312 619.082031 380.128906 609.421875 380.589844 606.40625 C 380.742188 605.179688 381.152344 604.921875 381.355469 603.796875 C 381.710938 601.597656 381.046875 596.027344 381.609375 594.390625 C 381.867188 593.675781 382.171875 593.367188 382.582031 593.0625 C 383.042969 592.804688 383.605469 592.550781 384.167969 592.652344 C 384.832031 592.753906 385.855469 593.367188 386.210938 593.878906 C 386.519531 594.339844 386.621094 594.953125 386.570312 595.464844 C 386.519531 595.976562 386.3125 596.589844 385.90625 596.945312 C 385.394531 597.40625 384.320312 597.816406 383.605469 597.714844 C 382.941406 597.613281 382.019531 596.84375 381.710938 596.28125 C 381.457031 595.769531 381.40625 595.15625 381.507812 594.644531 C 381.660156 594.136719 381.96875 593.574219 382.378906 593.265625 C 382.785156 592.90625 383.398438 592.652344 383.910156 592.652344 C 384.421875 592.601562 385.035156 592.753906 385.445312 593.0625 C 385.957031 593.519531 386.363281 594.238281 386.570312 595.207031 C 386.980469 596.894531 386.773438 600.578125 386.519531 602.671875 C 386.3125 604.207031 385.855469 604.820312 385.648438 606.609375 C 385.242188 610.238281 385.855469 619.800781 385.597656 623.226562 C 385.496094 624.808594 385.597656 625.679688 385.085938 626.648438 C 384.523438 627.722656 383.246094 628.847656 382.171875 629.257812 C 381.203125 629.617188 380.230469 629.410156 379.003906 629.308594 C 377.265625 629.15625 374.25 629 372.867188 628.132812 C 371.847656 627.519531 371.386719 627.007812 370.875 625.472656 C 369.1875 620.464844 369.648438 594.238281 370.773438 589.636719 C 371.078125 588.460938 371.386719 587.949219 371.898438 587.539062 C 372.355469 587.183594 373.074219 587.027344 373.636719 587.078125 C 374.199219 587.183594 374.914062 587.488281 375.269531 587.949219 C 375.628906 588.359375 375.882812 589.636719 375.882812 589.636719 " clip-rule="nonzero"/></clipPath><clipPath id="e923697883"><path d="M 425.011719 593.042969 L 439.816406 593.042969 L 439.816406 633 L 425.011719 633 Z M 425.011719 593.042969 " clip-rule="nonzero"/></clipPath><clipPath id="f4d7f9438a"><path d="M 431.148438 598.890625 C 430.640625 628.59375 430.382812 626.242188 430.585938 624.859375 C 430.894531 623.019531 432.222656 620.871094 432.835938 618.574219 C 433.5 615.863281 434.011719 612.949219 434.320312 609.574219 C 434.675781 605.28125 433.5 597.253906 434.523438 594.851562 C 434.933594 593.878906 435.648438 593.417969 436.261719 593.214844 C 436.773438 593.011719 437.4375 593.113281 437.898438 593.265625 C 438.359375 593.46875 438.871094 593.929688 439.125 594.339844 C 439.433594 594.800781 439.585938 595.414062 439.484375 595.925781 C 439.382812 596.589844 438.714844 597.558594 438.152344 597.917969 C 437.695312 598.226562 437.03125 598.277344 436.519531 598.171875 C 436.058594 598.121094 435.445312 597.867188 435.085938 597.40625 C 434.675781 596.894531 434.371094 595.769531 434.472656 595.105469 C 434.523438 594.59375 434.933594 594.03125 435.292969 593.726562 C 435.699219 593.367188 436.3125 593.164062 436.824219 593.113281 C 437.335938 593.0625 437.949219 593.214844 438.410156 593.574219 C 438.921875 593.980469 439.277344 594.59375 439.535156 595.667969 C 440.148438 598.226562 439.585938 605.636719 439.328125 609.371094 C 439.125 611.976562 438.972656 613.613281 438.460938 616.015625 C 437.847656 618.878906 436.210938 622.816406 435.699219 625.320312 C 435.34375 626.90625 435.546875 628.132812 435.136719 629.359375 C 434.78125 630.484375 434.320312 631.761719 433.449219 632.324219 C 432.53125 632.988281 430.742188 632.988281 429.617188 632.9375 C 428.644531 632.886719 427.570312 632.734375 426.957031 632.121094 C 426.191406 631.40625 425.882812 630.382812 425.578125 628.59375 C 424.65625 623.480469 424.964844 601.90625 426.140625 598.328125 C 426.394531 597.40625 426.703125 597.152344 427.164062 596.792969 C 427.621094 596.488281 428.339844 596.332031 428.902344 596.382812 C 429.464844 596.433594 430.128906 596.792969 430.535156 597.203125 C 430.894531 597.664062 431.148438 598.890625 431.148438 598.890625 " clip-rule="nonzero"/></clipPath><clipPath id="e4083019fd"><path d="M 341.242188 560.355469 L 468.332031 560.355469 L 468.332031 594.65625 L 341.242188 594.65625 Z M 341.242188 560.355469 " clip-rule="nonzero"/></clipPath><clipPath id="51048210b6"><path d="M 348.890625 564.175781 C 346.488281 573.992188 346.386719 574.859375 346.640625 575.730469 C 346.949219 576.652344 347.511719 577.316406 348.378906 578.082031 C 349.707031 579.207031 352.265625 580.382812 354.359375 581.300781 C 356.457031 582.222656 358.246094 582.886719 361.058594 583.5 C 365.351562 584.523438 374.707031 584.984375 377.878906 585.953125 C 379.15625 586.363281 379.257812 586.976562 380.484375 587.234375 C 383.042969 587.847656 389.894531 586.976562 392.601562 587.4375 C 393.984375 587.691406 394.339844 588.253906 395.722656 588.511719 C 398.429688 588.972656 402.621094 588.765625 407.835938 588.816406 C 417.191406 588.972656 441.835938 589.636719 447.304688 588.816406 C 448.738281 588.613281 449.09375 588.410156 450.015625 588 C 450.988281 587.589844 452.007812 587.132812 453.082031 586.414062 C 454.460938 585.496094 456.046875 584.320312 457.53125 582.785156 C 459.421875 580.84375 462.746094 577.417969 463.207031 575.472656 C 463.511719 574.402344 462.847656 573.890625 462.746094 572.664062 C 462.539062 570.3125 462.027344 564.175781 462.847656 562.234375 C 463.257812 561.363281 463.972656 560.851562 464.585938 560.597656 C 465.097656 560.394531 465.761719 560.496094 466.222656 560.699219 C 466.679688 560.902344 467.191406 561.3125 467.449219 561.773438 C 467.753906 562.183594 467.859375 562.847656 467.804688 563.359375 C 467.753906 563.871094 467.5 564.433594 467.140625 564.839844 C 466.785156 565.199219 466.222656 565.554688 465.710938 565.609375 C 465.046875 565.660156 463.921875 565.25 463.410156 564.839844 C 463 564.484375 462.796875 563.871094 462.746094 563.359375 C 462.695312 562.847656 462.796875 562.183594 463.101562 561.773438 C 463.460938 561.210938 464.484375 560.597656 465.148438 560.496094 C 465.710938 560.445312 466.273438 560.648438 466.734375 560.957031 C 467.140625 561.261719 467.449219 561.515625 467.703125 562.234375 C 468.417969 564.378906 468.523438 572.613281 467.703125 576.035156 C 467.191406 578.285156 466.015625 580.023438 465.148438 581.25 C 464.535156 582.070312 463.871094 582.273438 463.308594 583.039062 C 462.589844 583.910156 462.285156 585.546875 461.414062 586.3125 C 460.648438 587.027344 459.371094 587.132812 458.554688 587.746094 C 457.683594 588.359375 457.171875 589.328125 456.304688 589.992188 C 455.433594 590.761719 454.460938 591.375 453.234375 591.9375 C 451.601562 592.703125 450.21875 593.46875 447.304688 593.929688 C 439.789062 595.15625 415.558594 594.238281 406.046875 593.929688 C 400.9375 593.777344 396.898438 593.625 394.339844 593.214844 C 393.113281 593.011719 392.808594 592.703125 391.632812 592.550781 C 389.332031 592.292969 383.859375 592.652344 381.609375 592.5 C 380.484375 592.398438 379.972656 592.398438 379.054688 592.140625 C 377.929688 591.886719 377.007812 591.117188 375.269531 590.660156 C 371.898438 589.789062 364.636719 589.789062 359.832031 588.511719 C 355.382812 587.285156 350.476562 585.136719 347.410156 583.449219 C 345.363281 582.324219 343.625 581.40625 342.652344 580.074219 C 341.886719 579.105469 341.734375 578.03125 341.527344 576.753906 C 341.273438 575.167969 341.273438 573.277344 341.582031 571.28125 C 341.988281 568.625 343.164062 563.871094 344.136719 562.335938 C 344.597656 561.671875 345.003906 561.363281 345.515625 561.160156 C 346.027344 560.957031 346.792969 560.957031 347.355469 561.160156 C 347.867188 561.363281 348.429688 561.875 348.6875 562.335938 C 348.941406 562.847656 348.890625 564.175781 348.890625 564.175781 " clip-rule="nonzero"/></clipPath><clipPath id="9e8faae21b"><path d="M 424.113281 590.664062 L 429.738281 590.664062 L 429.738281 600.476562 L 424.113281 600.476562 Z M 424.113281 590.664062 " clip-rule="nonzero"/></clipPath><clipPath id="13f37dd001"><path d="M 429.308594 593.265625 C 429.667969 598.789062 429.464844 599.246094 429.105469 599.605469 C 428.746094 600.015625 428.183594 600.320312 427.671875 600.421875 C 427.164062 600.472656 426.496094 600.421875 426.039062 600.167969 C 425.578125 599.910156 425.117188 599.453125 424.914062 598.992188 C 424.65625 598.53125 424.605469 597.867188 424.707031 597.40625 C 424.8125 596.894531 425.117188 596.332031 425.527344 595.976562 C 425.933594 595.617188 426.496094 595.3125 427.007812 595.363281 C 427.671875 595.363281 428.796875 595.769531 429.207031 596.332031 C 429.667969 596.84375 429.769531 598.019531 429.667969 598.683594 C 429.515625 599.195312 429.105469 599.707031 428.695312 599.964844 C 428.234375 600.269531 427.621094 600.472656 427.109375 600.421875 C 426.601562 600.421875 425.988281 600.21875 425.578125 599.859375 C 425.167969 599.554688 424.964844 599.144531 424.707031 598.480469 C 424.351562 597.304688 423.941406 594.59375 424.195312 593.265625 C 424.351562 592.34375 424.757812 591.578125 425.269531 591.167969 C 425.730469 590.761719 426.496094 590.660156 427.058594 590.710938 C 427.621094 590.761719 428.289062 591.117188 428.644531 591.578125 C 429.054688 591.988281 429.308594 593.265625 429.308594 593.265625 " clip-rule="nonzero"/></clipPath><clipPath id="d48ed2ae60"><path d="M 676.714844 775.828125 L 681 775.828125 L 681 779.472656 L 676.714844 779.472656 Z M 676.714844 775.828125 " clip-rule="nonzero"/></clipPath><clipPath id="2af6098397"><path d="M 681 777.074219 C 679.050781 780.148438 677.25 779.550781 676.875 778.949219 C 676.5 778.273438 676.875 776.476562 677.398438 776.023438 C 678 775.574219 680.398438 776.175781 680.398438 776.175781 " clip-rule="nonzero"/></clipPath></defs><g clip-path="url(#1db6afce2e)"><g clip-path="url(#17dff5ae13)"><path fill="#000000" d="M 284.523438 174.382812 L 525.476562 174.382812 L 525.476562 524.578125 L 284.523438 524.578125 Z M 284.523438 174.382812 " fill-opacity="1" fill-rule="nonzero"/></g></g><g clip-path="url(#44d11bb41f)"><g clip-path="url(#17633bd720)"><path fill="#000000" d="M 344.902344 488.820312 L 471.757812 488.820312 L 471.757812 529.511719 L 344.902344 529.511719 Z M 344.902344 488.820312 " fill-opacity="1" fill-rule="nonzero"/></g></g><g clip-path="url(#24745dd978)"><g clip-path="url(#b775d77570)"><path fill="#ffde59" d="M 320.515625 271.488281 L 469.113281 271.488281 L 469.113281 530.894531 L 320.515625 530.894531 Z M 320.515625 271.488281 " fill-opacity="1" fill-rule="nonzero"/></g></g><g clip-path="url(#21f6f3f9a7)"><g clip-path="url(#cbcef009f9)"><path fill="#000000" d="M 338.5625 510.289062 L 470.8125 510.289062 L 470.8125 550.167969 L 338.5625 550.167969 Z M 338.5625 510.289062 " fill-opacity="1" fill-rule="nonzero"/></g></g><g clip-path="url(#fbb5b27530)"><g clip-path="url(#8272ccf62a)"><path fill="#000000" d="M 338.5625 535.035156 L 473.664062 535.035156 L 473.664062 574.246094 L 338.5625 574.246094 Z M 338.5625 535.035156 " fill-opacity="1" fill-rule="nonzero"/></g></g><g clip-path="url(#6ad70897ac)"><g clip-path="url(#04a5c324e4)"><path fill="#000000" d="M 368.726562 585.035156 L 388.613281 585.035156 L 388.613281 631.335938 L 368.726562 631.335938 Z M 368.726562 585.035156 " fill-opacity="1" fill-rule="nonzero"/></g></g><g clip-path="url(#e923697883)"><g clip-path="url(#f4d7f9438a)"><path fill="#000000" d="M 423.53125 591.066406 L 441.578125 591.066406 L 441.578125 634.984375 L 423.53125 634.984375 Z M 423.53125 591.066406 " fill-opacity="1" fill-rule="nonzero"/></g></g><g clip-path="url(#e4083019fd)"><g clip-path="url(#51048210b6)"><path fill="#000000" d="M 339.484375 558.449219 L 469.941406 558.449219 L 469.941406 595.976562 L 339.484375 595.976562 Z M 339.484375 558.449219 " fill-opacity="1" fill-rule="nonzero"/></g></g><g clip-path="url(#9e8faae21b)"><g clip-path="url(#13f37dd001)"><path fill="#000000" d="M 422.152344 588.664062 L 431.816406 588.664062 L 431.816406 602.515625 L 422.152344 602.515625 Z M 422.152344 588.664062 " fill-opacity="1" fill-rule="nonzero"/></g></g><g clip-path="url(#d48ed2ae60)"><g clip-path="url(#2af6098397)"><path fill="#ffde59" d="M 673.875 773.023438 L 684.007812 773.023438 L 684.007812 782.851562 L 673.875 782.851562 Z M 673.875 773.023438 " fill-opacity="1" fill-rule="nonzero"/></g></g></svg>